<svg viewBox="0 0 53 54" fill="none" xmlns="http://www.w3.org/2000/svg">
<g clip-path="url(#clip0)">
    <path d="M44.0588 11.4829C43.2422 12.8207 42.262 14.7065 42.2961 16.0698C40.8709 15.2222 42.1188 12.5926 43.1127 10.9195C43.0769 10.9025 43.0513 10.8821 43.0189 10.8634C42.0301 10.3613 41.1045 10.0124 40.2163 9.7843C39.8088 11.311 39.3724 13.5338 39.8259 14.8835C38.1706 14.4784 38.6581 11.4574 39.1389 9.57155C37.8927 9.40646 36.7232 9.53411 35.5896 9.96131C35.8811 11.5135 36.4437 13.6853 37.4256 14.7031C35.8248 15.0316 34.9691 12.3373 34.5667 10.4345C33.7894 10.8583 33.0222 11.4148 32.2483 12.128C32.9199 13.5389 33.9581 15.3669 35.1088 16.08C33.7229 16.754 32.3045 14.6469 31.4283 12.9398C30.1651 14.2589 28.8643 15.9541 27.4682 18.0459C27.0658 17.9846 26.4436 17.9846 25.9918 17.9965C25.5333 17.9846 24.8957 17.9829 24.4882 18.0459C23.0886 15.9541 21.7896 14.2589 20.5247 12.9398C19.645 14.6452 18.2335 16.7523 16.8424 16.0783C17.9931 15.3669 19.0313 13.5372 19.703 12.1263C18.9256 11.4131 18.1568 10.8566 17.3811 10.4328C16.9788 12.339 16.123 15.0316 14.5189 14.7031C15.5025 13.6836 16.0651 11.5101 16.3566 9.95961C15.2246 9.53241 14.0552 9.40646 12.8073 9.56985C13.2846 11.4557 13.7705 14.4767 12.1203 14.8818C12.572 13.5321 12.1356 11.3093 11.7282 9.7826C10.8417 10.0124 9.91773 10.3613 8.92897 10.8634C8.89658 10.8804 8.8676 10.9042 8.83521 10.9195C9.83249 12.5926 11.0787 15.2222 9.65178 16.0698C9.68758 14.7048 8.70906 12.8207 7.89078 11.4829C2.51228 15.1218 1.53887 23.6029 4.40115 27.4852C5.30637 28.6647 8.71588 32.4585 12.1254 29.5821C15.5349 26.7091 12.3658 22.9374 10.898 22.6158C10.2894 24.3076 12.018 25.9687 10.3661 25.8104C6.31729 25.2249 6.26444 21.1827 10.8997 17.7786C15.0558 14.9057 18.4108 20.9699 18.4108 20.9699C18.4108 20.9699 13.2965 17.8842 11.4315 18.8952C9.56655 19.9062 11.5372 20.3844 12.2839 21.712C13.0289 23.0413 16.6515 24.6394 16.2799 25.8087C15.6406 31.2858 19.9025 34.8515 20.5417 36.3408C21.181 37.83 21.6072 44.5802 25.6526 44.6381H25.656C25.6662 44.6381 26.0293 44.6381 26.2919 44.6381H26.2953C30.3407 44.5802 30.7668 37.83 31.4061 36.3408C32.0454 34.8515 36.3073 31.2841 35.668 25.8087C35.2947 24.6377 38.9173 23.043 39.6639 21.7137C40.4106 20.3861 42.3847 19.9062 40.5163 18.8969C38.6513 17.8859 33.5371 20.9716 33.5371 20.9716C33.5371 20.9716 36.8937 14.9074 41.0482 17.7803C45.6834 21.1844 45.6306 25.2266 41.5801 25.8121C39.9299 25.9721 41.6585 24.3093 41.0482 22.6209C39.5838 22.9408 36.413 26.7159 39.8225 29.5872C43.232 32.4602 46.6415 28.6732 47.5433 27.4903C50.409 23.6046 49.4356 15.1201 44.0588 11.4829ZM16.7282 23.8923C16.1401 23.768 13.3238 21.7818 12.942 21.1486C12.5618 20.5189 12.0112 19.8125 12.0555 19.6832C12.3351 18.8935 17.6812 21.0125 17.6812 22.1358C17.6812 22.9204 17.5635 24.0676 16.7282 23.8923ZM19.9025 34.0005C19.4405 34.2201 17.8619 31.553 17.4715 30.5607C17.0811 29.5685 17.8363 28.5098 18.5591 28.4894C19.0092 28.8349 20.9151 33.5222 19.9025 34.0005ZM25.1343 43.7258C24.5121 43.8568 23.3478 43.0058 23.3682 42.4782C23.3887 41.9506 24.2905 42.0782 24.5104 42.1906C24.7303 42.3063 25.7566 43.5947 25.1343 43.7258ZM26.8118 43.7258C26.193 43.5947 27.2158 42.3063 27.4358 42.1906C27.6557 42.0782 28.5575 41.9489 28.5779 42.4782C28.6001 43.0075 27.4358 43.8568 26.8118 43.7258ZM39.8924 19.6815C39.9333 19.8108 39.3827 20.5172 39.0042 21.1469C38.624 21.7801 35.8061 23.7663 35.218 23.8889C34.3826 24.0659 34.2616 22.9187 34.2616 22.1341C34.265 21.0125 39.6128 18.8918 39.8924 19.6815ZM34.4747 30.5607C34.0843 31.5547 32.5108 34.2201 32.0437 34.0005C31.0311 33.5222 32.937 28.8349 33.387 28.4894C34.1116 28.5081 34.8668 29.5668 34.4747 30.5607Z" fill="#ffffff"/>
</g>
<defs>
    <clipPath id="clip0">
        <rect x="0.0390625" y="0.577209" width="52.4269" height="52.4269" rx="20" fill="#ffffff"/>
    </clipPath>
</defs>
</svg>
